<?xml version="1.0" encoding="UTF-8" standalone="no"?><!DOCTYPE svg PUBLIC "-//W3C//DTD SVG 1.1//EN" "http://www.w3.org/Graphics/SVG/1.1/DTD/svg11.dtd"><svg width="100%" height="100%" viewBox="0 0 231 252" version="1.1" xmlns="http://www.w3.org/2000/svg" xmlns:xlink="http://www.w3.org/1999/xlink" xml:space="preserve" xmlns:serif="http://www.serif.com/" style="fill-rule:evenodd;clip-rule:evenodd;stroke-linejoin:round;stroke-miterlimit:2;"><rect id="SpriteLight" x="0" y="0.911" width="231" height="250.179" style="fill:none;"/><g><path d="M13.337,144.859c-1.083,0 -2.119,0.439 -2.873,1.217c-0.753,0.777 -1.159,1.827 -1.125,2.909c2.177,56.757 48.873,102.104 106.161,102.104c57.287,0 103.983,-45.346 106.151,-102.102c0.034,-1.08 -0.371,-2.128 -1.123,-2.904c-0.752,-0.776 -1.786,-1.214 -2.867,-1.214c-19.467,-0.01 -102.161,-0.01 -102.161,-0.01c-0,0 -82.7,0 -102.163,0Z" style="fill:#fcf5ea;"/><g><path d="M116.036,118.666c7.511,-38.267 25.807,-65.699 49.619,-73.258c-3.226,3.028 -5.762,5.417 -8.298,7.83c-17.952,17.115 -27.358,38.366 -30.412,62.695c-1.009,8.052 0.739,13.297 10.49,14.43c13.125,1.551 24.896,-0.714 34.574,-9.604c14.799,-13.592 23.245,-31.938 27.358,-51.515c9.603,-45.802 23.098,-67.25 22.654,-68.333c-15.587,2.758 -31.519,4.235 -46.688,8.52c-30.338,8.545 -55.898,23.96 -68.949,54.79c-8.151,19.257 -4.211,42.182 9.652,54.445Z" style="fill:#97a366;fill-rule:nonzero;"/><path d="M60.705,130.265c2.733,0.96 5.885,1.231 9.455,0.615c8.299,-1.428 13.322,-9.653 11.008,-17.754c-0.468,-1.576 -2.709,-8.422 -10.096,-15.317c-5.738,-5.343 -12.264,-9.776 -20.685,-16.4c18.025,5.073 30.19,14.085 38.488,27.752c2.118,3.497 7.56,2.315 7.954,-1.748c0.911,-9.678 -2.536,-18.075 -9.062,-26.102c-16.966,-20.981 -58.262,-23.566 -78.799,-15.243c7.929,18.936 27.629,55.873 51.737,64.197Z" style="fill:#97a366;fill-rule:nonzero;"/></g></g></svg>